<?xml version="1.0" encoding="UTF-8" standalone="no"?>
<!-- Generator: Adobe Illustrator 25.0.1, SVG Export Plug-In . SVG Version: 6.00 Build 0)  -->

<svg
   version="1.1"
   id="Layer_1"
   x="0px"
   y="0px"
   viewBox="0 0 210 210"
   xml:space="preserve"
   sodipodi:docname="Imp_logo.svg"
   inkscape:version="1.2.2 (b0a8486541, 2022-12-01)"
   width="210"
   height="210"
   xmlns:inkscape="http://www.inkscape.org/namespaces/inkscape"
   xmlns:sodipodi="http://sodipodi.sourceforge.net/DTD/sodipodi-0.dtd"
   xmlns="http://www.w3.org/2000/svg"
   xmlns:svg="http://www.w3.org/2000/svg"><defs
   id="defs79">
	
	
</defs><sodipodi:namedview
   id="namedview77"
   pagecolor="#ffffff"
   bordercolor="#000000"
   borderopacity="0.25"
   inkscape:showpageshadow="2"
   inkscape:pageopacity="0.0"
   inkscape:pagecheckerboard="0"
   inkscape:deskcolor="#d1d1d1"
   showgrid="false"
   inkscape:zoom="2.8239814"
   inkscape:cx="258.50029"
   inkscape:cy="105.52478"
   inkscape:window-width="3840"
   inkscape:window-height="2088"
   inkscape:window-x="0"
   inkscape:window-y="44"
   inkscape:window-maximized="1"
   inkscape:current-layer="Layer_1" />
<style
   type="text/css"
   id="style2">
	.st0{fill:#878787;}
	.st1{fill:#020203;}
	.st2{fill-rule:evenodd;clip-rule:evenodd;fill:#D6151A;}
	.st3{fill-rule:evenodd;clip-rule:evenodd;fill:#FFFFFF;}
</style>
<g
   id="g72"
   transform="matrix(1.3881348,0,0,1.3881348,-49.042536,-41.378814)"
   style="stroke-width:0.720391">
		<path
   class="st1"
   d="M 165.4,61 C 163.5,63.5 154.8,74 142.6,72.2 105.8,66.7 96,83.7 95.8,103.6 95.6,120.2 87,127.7 87,127.7 75.6,138 52.4,128.7 57,94.5 60.5,68.1 77.2,48.8 96,39.3 c 0,0 -1.2,-0.8 -1.2,-0.8 0,0 0.8,-1.5 0.7,-1.5 -9.2,2.6 -34.9,10.9 -49,44.1 -10.3,24.2 -6.7,47.5 8.3,61.8 8.5,8 19,16 40.8,13.4 0,0 0.3,8.6 -20.7,9.7 -0.1,0 -0.1,0 -0.2,0.1 0.5,0.3 1.1,0.6 1.6,0.9 17.6,6.2 29.4,-4.6 36.7,-15.5 0,0 11.2,10.5 2,23.8 -0.1,0.2 0,0.4 0.2,0.4 3.1,-0.1 6.1,-0.4 9,-0.9 32.5,-6.3 57.1,-34.9 57.1,-69.2 -0.1,-17 -6,-32.5 -15.9,-44.6 z"
   id="path66"
   style="stroke-width:0.720391" />
		<path
   class="st2"
   d="m 125.6,46.4 c 0,-6.2 -5,-11.2 -11.2,-11.2 -6.2,0 -11.2,5 -11.2,11.2 0,6.2 5,11.2 11.2,11.2 6.3,0 11.2,-5 11.2,-11.2"
   id="path68"
   style="stroke-width:0.720391" />
		<path
   class="st3"
   d="m 116.1,108.7 c 0,-0.9 -0.8,-1.7 -1.7,-1.7 -0.9,0 -1.7,0.8 -1.7,1.7 0,0.9 0.8,1.7 1.7,1.7 0.9,0 1.7,-0.8 1.7,-1.7"
   id="path70"
   style="stroke-width:0.720391" />
	</g>
</svg>
