<?xml version="1.0" encoding="UTF-8" standalone="no"?>
<svg
   viewBox="0 0 24 24"
   version="1.1"
   id="svg1635"
   sodipodi:docname="add_raster.svg"
   xml:space="preserve"
   inkscape:version="1.2.2 (b0a8486541, 2022-12-01)"
   xmlns:inkscape="http://www.inkscape.org/namespaces/inkscape"
   xmlns:sodipodi="http://sodipodi.sourceforge.net/DTD/sodipodi-0.dtd"
   xmlns="http://www.w3.org/2000/svg"
   xmlns:svg="http://www.w3.org/2000/svg"><defs
     id="defs1639" /><sodipodi:namedview
     id="namedview1637"
     pagecolor="#ffffff"
     bordercolor="#000000"
     borderopacity="0.25"
     inkscape:showpageshadow="2"
     inkscape:pageopacity="0.0"
     inkscape:pagecheckerboard="0"
     inkscape:deskcolor="#d1d1d1"
     showgrid="false"
     inkscape:zoom="19.443941"
     inkscape:cx="26.332111"
     inkscape:cy="29.623625"
     inkscape:window-width="3840"
     inkscape:window-height="2120"
     inkscape:window-x="0"
     inkscape:window-y="0"
     inkscape:window-maximized="1"
     inkscape:current-layer="svg1635" /><path
     d="M19 17H22V19H19V22H17V19H14V17H17V14H19V17M8 16H12V12H8V16M12 12H16V8H12V12M2 2V22H13.54C13 21.42 12.63 20.74 12.36 20H8V16H4V12H8V8H4V4H8V8H12V4H16V8H20V12.36C20.74 12.63 21.42 13 22 13.54V2H2Z"
     id="path1633"
     inkscape:export-filename="add_raster.png"
     inkscape:export-xdpi="96"
     inkscape:export-ydpi="96" /><path
     id="path5343"
     style="fill:#ffffff;stroke-width:1.04358"
     d="M 7.3805595,7.5544281 C 7.3805594,11.831571 4.2380656,14.854042 0,15.488904 L 0,0 c 4.1796903,0.62188943 7.3805595,3.2772854 7.3805595,7.5544281 z"
     sodipodi:nodetypes="sccs" /><g
     id="g5287"
     transform="translate(0.1217641,-4.0663659)"><path
       d="M 0.33231264,4.0995531 C 0.81526088,4.1445942 1.255052,4.2280848 1.7294658,4.3643422 2.0427805,4.454458 2.6236011,4.6623499 2.6351528,4.6892178 2.6409296,4.7026587 2.5408977,4.7476522 2.2971599,4.8424976 1.777057,5.0442291 1.8514618,5.0460605 1.5252894,4.8381013 1.1148079,4.5728894 0.81125212,4.4129171 0.29064857,4.1831136 0.1645777,4.1258973 0.06324122,4.0799377 0.06659949,4.0784928 c 0.0033574,-0.00168 0.12313431,0.00874 0.26571315,0.02103 z"
       id="path872"
       style="fill:#0798d4;fill-opacity:1;stroke:none;stroke-width:0.0308388" /><path
       d="m 0.1947607,4.6958935 c 0.38469337,0.1728391 0.9043885,0.4468044 0.9202721,0.4837474 0.014438,0.033586 -0.84947173,0.1344289 -1.14012172,0.134048 l -0.09504164,0.00112 0.001288,-0.135843 c -5.3203e-4,-0.4593773 0.001456,-0.593543 0.0134605,-0.6026744 0.005273,-0.00624 0.14141901,0.046634 0.30014909,0.1196523 z"
       id="path878"
       style="fill:#0798d4;fill-opacity:1;stroke:none;stroke-width:0.0308388" /><path
       d="m 3.4485314,5.0955679 c 0.8927148,0.5214604 1.6665698,1.201465 2.2667921,1.9959106 0.074518,0.099278 0.1536027,0.2045485 0.1730797,0.2359667 l 0.038468,0.057076 -0.1378986,0.091127 C 5.4740824,7.682661 5.0411604,7.9344515 4.7046276,8.1050057 4.5544714,8.1815014 4.5194432,8.1925846 4.5115016,8.1741117 4.476847,8.0935109 4.2712137,7.7262964 4.1509761,7.5253097 3.7101896,6.7916366 3.1045402,6.0771169 2.4743828,5.5462338 l -0.1686509,-0.1423702 0.3744656,-0.161 c 0.2065434,-0.088802 0.4193172,-0.186252 0.4708861,-0.214394 l 0.094742,-0.052672 z"
       id="path884"
       style="fill:#0798d4;fill-opacity:1;stroke:none;stroke-width:0.0308388" /><path
       d="M 0.13826344,9.779807 C 0.68979177,9.7714904 1.4910691,9.6776699 2.1077383,9.5478306 2.7541632,9.4131553 3.2366497,9.2673912 4.0408076,8.9674065 l 0.2192716,-0.082337 0.056314,0.130979 c 0.077251,0.1796773 0.211197,0.6115343 0.2888453,0.9263348 0.1613398,0.6667937 0.2303385,1.3872157 0.2038252,2.1168707 -0.00977,0.268821 -0.046039,0.656475 -0.06473,0.682418 -0.016053,0.02282 -0.358176,0.134102 -0.7852481,0.256042 -1.2238724,0.35111 -2.4234562,0.53659 -3.73936763,0.581082 -0.19439923,0.006 -0.35591998,0.0098 -0.3607226,0.0078 -0.0177644,-0.0043 0.007356,-3.791414 0.0248713,-3.7969556 0.009117,-0.00196 0.12407545,-0.00759 0.25439701,-0.00991 z"
       id="path894"
       style="fill:#0798d4;fill-opacity:1;stroke:none;stroke-width:0.0308388" /><path
       d="m 6.236558,7.8641807 c 0.1569934,0.2309431 0.5465593,1.0861194 0.6703814,1.480549 0.2107753,0.6614563 0.3332252,1.3210953 0.369987,1.9757943 0.011778,0.221753 0.00753,0.281282 -0.018131,0.30027 -0.017986,0.01369 -0.159258,0.09235 -0.3139647,0.176774 -0.2746374,0.147923 -1.6385993,0.770168 -1.6472631,0.750015 -0.00216,-0.005 0.00436,-0.174971 0.015398,-0.380667 C 5.3671833,11.112976 5.2325906,10.124301 4.8961275,9.1149767 4.8568733,9.0005384 4.8024577,8.8508372 4.7735787,8.783669 L 4.7215967,8.662765 4.8005197,8.628832 c 0.2266942,-0.097463 0.704233,-0.3704292 1.3472274,-0.7722289 0.053483,-0.032944 0.059965,-0.031751 0.088812,0.00756 z"
       id="path896"
       style="fill:#0798d4;fill-opacity:1;stroke:none;stroke-width:0.0308388" /><path
       d="M 0.05327141,14.094045 C 1.4280202,14.07996 2.9342756,13.844212 4.3299144,13.425216 c 0.1624297,-0.04795 0.3013501,-0.08579 0.3078317,-0.0846 0.0072,0.0029 -0.012836,0.108978 -0.04461,0.234057 -0.2883345,1.166532 -0.8419924,2.234252 -1.6406204,3.162569 l -0.2037292,0.238806 -0.2229299,0.03218 c -0.7424564,0.110305 -1.60544242,0.180909 -2.38905106,0.195501 -0.19344212,0.0036 -0.28801361,-0.0035 -0.29115291,-0.02008 -0.009652,-0.04559 0.00168,-3.082663 0.0108171,-3.084592 0.005038,-0.002 0.09359814,-0.0045 0.19680067,-0.005 z"
       id="path900"
       style="fill:#0798d4;fill-opacity:1;stroke:none;stroke-width:0.0308388" /><path
       d="m 7.2715604,12.279842 c -0.00282,0.04896 -0.019436,0.209309 -0.036303,0.359814 C 7.0967211,13.835293 6.6722893,14.990706 5.9999996,16 l -0.1408764,0.213772 -0.2835848,0.09009 c -0.589721,0.187893 -1.1710784,0.344331 -1.7946997,0.48114 -0.1218932,0.02655 -0.2236357,0.04442 -0.2258017,0.03938 -0.00216,-0.005 0.061093,-0.09392 0.1382559,-0.196728 0.4325498,-0.571962 0.7867855,-1.205752 1.0648562,-1.910261 0.1926412,-0.486715 0.3138462,-0.898951 0.415745,-1.402367 l 0.035321,-0.172366 0.6546592,-0.277491 c 0.5867684,-0.25029 0.941789,-0.414868 1.2950978,-0.606564 l 0.1192084,-0.06518 z"
       id="path904"
       style="fill:#0798d4;fill-opacity:1;stroke:none;stroke-width:0.0308388" /><path
       d="m 0.07859944,17.716213 c 0.53401396,-0.0028 1.89763306,-0.09364 1.98663136,-0.131911 0.06381,-0.02744 2.8e-4,0.03768 -0.1618134,0.165074 -0.5320852,0.42375 -1.18661524,0.812602 -1.82639643,1.087679 -0.19814756,0.08519 -0.23317574,0.09627 -0.23752388,0.07228 -0.0154431,-0.07295 -0.003052,-1.182516 0.0127801,-1.187335 0.00912,-0.002 0.11087674,-0.0059 0.22632087,-0.0058 z"
       id="path908"
       style="fill:#0798d4;fill-opacity:1;stroke:none;stroke-width:0.0308388" /><path
       d="m 3.2031541,17.417374 c 0.5502229,-0.09928 1.3202038,-0.275142 1.8170973,-0.415163 0.1290805,-0.03759 0.2310582,-0.05955 0.2272295,-0.04995 -0.024418,0.05427 -0.494072,0.502912 -0.7218618,0.690382 -0.6215058,0.51194 -1.1621002,0.841859 -1.9009556,1.159527 -0.5776502,0.24836 -1.0303815,0.389288 -1.6146752,0.49725 -0.23347566,0.04467 -0.7167812,0.105237 -0.89821721,0.113609 l -0.12647661,0.0066 0.49103687,-0.223058 C 1.0378956,18.943205 1.3408281,18.773166 1.8005526,18.45414 2.1478018,18.211332 2.5777225,17.85538 2.8642041,17.573039 l 0.1172287,-0.116062 z"
       id="path910"
       style="fill:#0798d4;fill-opacity:1;stroke:none;stroke-width:0.0308388" /><path
       d="M 0.14638344,5.8189446 C 0.59205662,5.8004074 1.1413384,5.7174656 1.6528903,5.5930306 1.7143156,5.5785536 1.7253643,5.5857501 1.9468577,5.763092 2.7225622,6.3826124 3.3945529,7.18202 3.8782359,8.0663659 3.9530372,8.2033233 4.0254376,8.3393231 4.0369892,8.366191 L 4.0579262,8.414889 3.8218626,8.504445 C 2.846173,8.8682293 2.1270875,9.0560299 1.2250414,9.179244 c -0.42090691,0.057611 -1.2807861,0.1169305 -1.3408158,0.093 -0.0168096,-0.00669 -0.0156979,-3.3915326 0.001064,-3.4265938 0.004553,-0.00792 0.12070066,-0.020077 0.26109731,-0.026714 z"
       id="path882"
       style="fill:#0798d4;fill-opacity:1;stroke:none;stroke-width:0.0308388" /><path
       d="M 3.9279673,8.9933951 C 3.3618284,9.2237362 2.7641263,9.4073673 2.145085,9.5421266 2.4227769,10.713966 2.5134026,11.980807 2.3580202,13.372587 3.1107508,13.240471 3.8457422,13.050962 4.5928537,12.798816 l 0.1702335,-0.05778 0.020369,-0.219284 C 4.8814559,11.549837 4.79175,10.549701 4.5287444,9.6320072 4.4626788,9.3999384 4.2812523,8.8715755 4.2662464,8.8648354 4.2595763,8.8618112 4.1073458,8.9196884 3.9279545,8.9933867 Z"
       id="path15784"
       style="fill:#00246b;fill-opacity:1;stroke:none;stroke-width:0.0308388"
       sodipodi:nodetypes="cccccccccc" /></g></svg>
